<svg width="32" height="32" fill="none" xmlns="http://www.w3.org/2000/svg"><path d="M16 2.667c3.622 0 4.074.013 5.495.08 1.42.066 2.387.289 3.238.62.88.338 1.621.797 2.362 1.537a6.545 6.545 0 011.538 2.362c.329.85.553 1.818.62 3.238.062 1.421.08 1.873.08 5.496 0 3.622-.014 4.075-.08 5.496-.067 1.42-.291 2.387-.62 3.237a6.511 6.511 0 01-1.538 2.363 6.554 6.554 0 01-2.362 1.537c-.85.33-1.818.553-3.238.62-1.421.063-1.873.08-5.496.08-3.622 0-4.074-.013-5.496-.08-1.42-.067-2.386-.29-3.237-.62a6.52 6.52 0 01-2.363-1.537 6.539 6.539 0 01-1.537-2.363c-.33-.85-.553-1.817-.62-3.237-.063-1.421-.08-1.873-.08-5.496s.013-4.075.08-5.496c.067-1.421.29-2.387.62-3.237a6.507 6.507 0 011.537-2.363 6.53 6.53 0 012.363-1.538c.85-.33 1.816-.553 3.237-.62 1.422-.062 1.874-.08 5.496-.08zm0 6.666a6.666 6.666 0 100 13.333 6.666 6.666 0 000-13.333zM24.665 9a1.667 1.667 0 10-3.334 0 1.667 1.667 0 003.334 0zm-8.667 3a4 4 0 110 8 4 4 0 010-8z" fill="#F2323D"/></svg>